<?xml version="1.0" standalone="no"?><!DOCTYPE svg PUBLIC "-//W3C//DTD SVG 1.1//EN" "http://www.w3.org/Graphics/SVG/1.1/DTD/svg11.dtd"><svg t="1693363208787" class="icon" viewBox="0 0 1123 1024" version="1.1" xmlns="http://www.w3.org/2000/svg" p-id="5058" xmlns:xlink="http://www.w3.org/1999/xlink" width="219.3359375" height="200"><path d="M1014.122186 1024H109.753483A109.753483 109.753483 0 0 1 0 914.246517V392.917471a109.753483 109.753483 0 0 1 109.753483-109.753484h904.368703a109.753483 109.753483 0 0 1 109.753484 109.753484v521.329046a109.753483 109.753483 0 0 1-109.753484 109.753483zM109.753483 370.966774a21.950697 21.950697 0 0 0-21.950696 21.950697v521.329046a21.950697 21.950697 0 0 0 21.950696 21.950696h904.368703a21.950697 21.950697 0 0 0 21.950697-21.950696V392.917471a21.950697 21.950697 0 0 0-21.950697-21.950697z" fill="#1afa29" p-id="5059"></path><path d="M687.056806 891.198285H307.309753a43.901393 43.901393 0 0 1 0-87.802787h379.747053a43.901393 43.901393 0 0 1 0 87.802787zM175.605573 803.395498a43.901393 43.901393 0 1 0 43.901394 43.901394 43.901393 43.901393 0 0 0-43.901394-43.901394zM432.428725 414.868167a43.901393 43.901393 0 1 0 43.901393 43.901394 43.901393 43.901393 0 0 0-43.901393-43.901394zM561.937835 414.868167a43.901393 43.901393 0 1 0 43.901393 43.901394 43.901393 43.901393 0 0 0-43.901393-43.901394zM690.349411 414.868167a43.901393 43.901393 0 1 0 43.901393 43.901394 43.901393 43.901393 0 0 0-43.901393-43.901394zM818.760986 414.868167a43.901393 43.901393 0 1 0 43.901393 43.901394 43.901393 43.901393 0 0 0-43.901393-43.901394zM947.172562 414.868167a43.901393 43.901393 0 1 0 43.901393 43.901394 43.901393 43.901393 0 0 0-43.901393-43.901394zM175.605573 546.572347a43.901393 43.901393 0 1 0 43.901394 43.901394 43.901393 43.901393 0 0 0-43.901394-43.901394zM304.017149 546.572347a43.901393 43.901393 0 1 0 43.901393 43.901394 43.901393 43.901393 0 0 0-43.901393-43.901394zM432.428725 546.572347a43.901393 43.901393 0 1 0 43.901393 43.901394 43.901393 43.901393 0 0 0-43.901393-43.901394zM561.937835 546.572347a43.901393 43.901393 0 1 0 43.901393 43.901394 43.901393 43.901393 0 0 0-43.901393-43.901394zM690.349411 546.572347a43.901393 43.901393 0 1 0 43.901393 43.901394 43.901393 43.901393 0 0 0-43.901393-43.901394zM818.760986 546.572347a43.901393 43.901393 0 1 0 43.901393 43.901394 43.901393 43.901393 0 0 0-43.901393-43.901394zM818.760986 803.395498a43.901393 43.901393 0 1 0 43.901393 43.901394 43.901393 43.901393 0 0 0-43.901393-43.901394zM175.605573 678.276527a43.901393 43.901393 0 1 0 43.901394 43.901394 43.901393 43.901393 0 0 0-43.901394-43.901394zM304.017149 678.276527a43.901393 43.901393 0 1 0 43.901393 43.901394 43.901393 43.901393 0 0 0-43.901393-43.901394zM432.428725 678.276527a43.901393 43.901393 0 1 0 43.901393 43.901394 43.901393 43.901393 0 0 0-43.901393-43.901394zM561.937835 678.276527a43.901393 43.901393 0 1 0 43.901393 43.901394 43.901393 43.901393 0 0 0-43.901393-43.901394zM948.270096 803.395498a43.901393 43.901393 0 1 0 43.901394 43.901394 43.901393 43.901393 0 0 0-43.901394-43.901394z" fill="#1afa29" p-id="5060"></path><path d="M881.320472 766.079314H689.251876a43.901393 43.901393 0 0 1 0-87.802787h192.068596a21.950697 21.950697 0 0 0 21.950696-21.950696v-65.85209a43.901393 43.901393 0 0 1 87.802787 0v65.85209a109.753483 109.753483 0 0 1-109.753483 109.753483zM305.114684 502.670954H175.605573a43.901393 43.901393 0 0 1 0-87.802787h129.509111a43.901393 43.901393 0 0 1 0 87.802787zM563.03537 365.4791a43.901393 43.901393 0 0 1-43.901394-43.901394v-105.363344A109.753483 109.753483 0 0 1 628.88746 106.460879h61.461951a21.950697 21.950697 0 0 0 21.950696-21.950697V43.901393a43.901393 43.901393 0 0 1 87.802787 0v40.608789a109.753483 109.753483 0 0 1-109.753483 109.753484h-61.461951a21.950697 21.950697 0 0 0-21.950697 21.950696v105.363344a43.901393 43.901393 0 0 1-43.901393 43.901394z" fill="#1afa29" p-id="5061"></path></svg>